<svg xmlns="http://www.w3.org/2000/svg" viewBox="0 0 162 35">
  <defs>
    <linearGradient id="linear-gradient" x1="1" x2="0" y2="1" gradientUnits="objectBoundingBox">
      <stop offset="0" stop-color="#f869d5"/>
      <stop offset="1" stop-color="#5650de"/>
    </linearGradient>
  </defs>
  <g id="logo" transform="translate(-8327 -7960)">
    <path d="M3.456,35.029l-2.221,0A1.257,1.257,0,0,1,0,33.8V8.881A8.878,8.878,0,0,1,8.7,0l0,0H24.436A1.235,1.235,0,0,1,25.67,1.233V3.7a3.7,3.7,0,0,1-3.7,3.7H11.107s0,0,0,0,0,0,0,0h0a4.242,4.242,0,0,0-4.189,4.194v2.713H17.525a1.235,1.235,0,0,1,1.234,1.234v1.973a3.7,3.7,0,0,1-3.7,3.7H11.107s0,0,0,0,0,0,0,0h0a4.242,4.242,0,0,0-4.189,4.193v6.167a3.455,3.455,0,0,1-3.455,3.454Zm13.575-5.18H13.082V28.122a1.729,1.729,0,0,1,1.728-1.727h2.221a1.727,1.727,0,1,1,0,3.453Z" transform="translate(8327 7960)" fill="url(#linear-gradient)"/>
    <path d="M12.428-15.782a2.66,2.66,0,0,1,.247.559,2.413,2.413,0,0,1,.117.767,1.553,1.553,0,0,1-.325,1.066,1.11,1.11,0,0,1-.871.364H5.33v4.134h6.214a2.728,2.728,0,0,1,.247.546,2.294,2.294,0,0,1,.117.754,1.5,1.5,0,0,1-.325,1.053,1.13,1.13,0,0,1-.871.351H5.382V-.026Q5.148.026,4.719.1a5.008,5.008,0,0,1-.9.078,2.132,2.132,0,0,1-1.4-.364A1.553,1.553,0,0,1,2-1.4V-13.988A1.774,1.774,0,0,1,2.483-15.3,1.774,1.774,0,0,1,3.8-15.782ZM26.182-2.418a2.167,2.167,0,0,1-.208,1A1.832,1.832,0,0,1,25.22-.7a7.175,7.175,0,0,1-1.911.78A10.16,10.16,0,0,1,20.67.39a9.254,9.254,0,0,1-2.444-.3,5.12,5.12,0,0,1-1.872-.923,4.054,4.054,0,0,1-1.2-1.586,5.738,5.738,0,0,1-.416-2.288v-7.566a3.379,3.379,0,0,1,.611-.143,5.66,5.66,0,0,1,.9-.065,2.286,2.286,0,0,1,1.352.325,1.415,1.415,0,0,1,.442,1.209v6.188a2.415,2.415,0,0,0,.689,1.937,2.949,2.949,0,0,0,1.963.585,5.144,5.144,0,0,0,1.365-.156,3.256,3.256,0,0,0,.845-.338v-9.542a3.379,3.379,0,0,1,.611-.143,5.478,5.478,0,0,1,.871-.065,2.277,2.277,0,0,1,1.365.325,1.438,1.438,0,0,1,.429,1.209Zm8.138.312A6.174,6.174,0,0,0,35.7-2.249a2.575,2.575,0,0,0,.91-.351V-5.486l-2.522.234A3.636,3.636,0,0,0,32.5-4.8a1.218,1.218,0,0,0-.546,1.105,1.374,1.374,0,0,0,.559,1.17A3.069,3.069,0,0,0,34.32-2.106Zm-.1-10.582A6.839,6.839,0,0,1,38.285-11.6a3.88,3.88,0,0,1,1.521,3.38V-2.21a1.468,1.468,0,0,1-.312.988,3.242,3.242,0,0,1-.78.65,6.319,6.319,0,0,1-1.846.7A11.3,11.3,0,0,1,34.32.39a7.283,7.283,0,0,1-4.095-1,3.373,3.373,0,0,1-1.5-3,3.276,3.276,0,0,1,1.1-2.665A5.821,5.821,0,0,1,33.046-7.41l3.562-.364v-.468A1.616,1.616,0,0,0,35.893-9.7a3.667,3.667,0,0,0-2.015-.468,7.914,7.914,0,0,0-1.976.247,9.223,9.223,0,0,0-1.716.611,1.694,1.694,0,0,1-.481-.559,1.553,1.553,0,0,1-.195-.767,1.359,1.359,0,0,1,.247-.845,2.12,2.12,0,0,1,.793-.585,7.718,7.718,0,0,1,1.716-.468A12.163,12.163,0,0,1,34.216-12.688Zm20.228,10.3a1.621,1.621,0,0,1-.26.962,2.854,2.854,0,0,1-.78.7,7.672,7.672,0,0,1-1.716.767,7.9,7.9,0,0,1-2.47.351,7.272,7.272,0,0,1-4.953-1.6,6.162,6.162,0,0,1-1.833-4.9,7.937,7.937,0,0,1,.494-2.951A5.694,5.694,0,0,1,44.265-11.1a5.338,5.338,0,0,1,1.989-1.2,7.607,7.607,0,0,1,2.47-.39,5.924,5.924,0,0,1,1.326.143,6.8,6.8,0,0,1,1.118.351V-16.9a3.379,3.379,0,0,1,.611-.143,5.478,5.478,0,0,1,.871-.065,2.209,2.209,0,0,1,1.365.338,1.443,1.443,0,0,1,.429,1.2Zm-3.276-7.15a4,4,0,0,0-.91-.39,3.873,3.873,0,0,0-1.118-.156,3.327,3.327,0,0,0-2.418.936,4.145,4.145,0,0,0-.962,3.068,4,4,0,0,0,.923,2.925,3.39,3.39,0,0,0,2.509.923,3.775,3.775,0,0,0,1.157-.156,3.8,3.8,0,0,0,.819-.364ZM72.15-3.718H66.326q-.286.962-.611,2T65.182,0a4.7,4.7,0,0,1-.559.182,2.987,2.987,0,0,1-.741.078A2.348,2.348,0,0,1,62.5-.091a1.154,1.154,0,0,1-.494-1A2.087,2.087,0,0,1,62.1-1.7q.091-.3.221-.689.208-.728.559-1.755t.754-2.236q.4-1.209.871-2.5t.9-2.5q.429-1.209.832-2.262t.689-1.807a5.017,5.017,0,0,1,1-.364,5.037,5.037,0,0,1,1.339-.182,4.857,4.857,0,0,1,1.664.273,1.456,1.456,0,0,1,.962.871q.52,1.43,1.144,3.289t1.261,3.835q.637,1.976,1.235,3.874T76.6-.442a2.029,2.029,0,0,1-.715.481,2.727,2.727,0,0,1-1.079.2,1.982,1.982,0,0,1-1.287-.325,2.115,2.115,0,0,1-.585-1.027Zm-2.912-9.308q-.234.65-.507,1.456t-.572,1.677q-.3.871-.611,1.768t-.6,1.755h4.524l-2.106-6.656Zm13.052,13q-.208.052-.611.13a4.585,4.585,0,0,1-.871.078,2.209,2.209,0,0,1-1.365-.338,1.443,1.443,0,0,1-.429-1.2V-16.9a3.379,3.379,0,0,1,.611-.143,5.478,5.478,0,0,1,.871-.065,2.209,2.209,0,0,1,1.365.338,1.443,1.443,0,0,1,.429,1.2ZM85.9-12.22q.208-.052.611-.13a4.586,4.586,0,0,1,.871-.078,2.209,2.209,0,0,1,1.365.338,1.443,1.443,0,0,1,.429,1.2V-.026q-.208.052-.611.13A4.585,4.585,0,0,1,87.7.182a2.209,2.209,0,0,1-1.365-.338,1.443,1.443,0,0,1-.429-1.2Zm-.26-3.77a1.754,1.754,0,0,1,.533-1.287,1.848,1.848,0,0,1,1.365-.533,1.8,1.8,0,0,1,1.352.533,1.776,1.776,0,0,1,.52,1.287,1.808,1.808,0,0,1-.52,1.313,1.8,1.8,0,0,1-1.352.533,1.848,1.848,0,0,1-1.365-.533A1.784,1.784,0,0,1,85.644-15.99Zm11.8,13.884a6.174,6.174,0,0,0,1.378-.143,2.575,2.575,0,0,0,.91-.351V-5.486l-2.522.234a3.636,3.636,0,0,0-1.586.455,1.218,1.218,0,0,0-.546,1.105,1.374,1.374,0,0,0,.559,1.17A3.069,3.069,0,0,0,97.448-2.106Zm-.1-10.582a6.839,6.839,0,0,1,4.069,1.092,3.88,3.88,0,0,1,1.521,3.38V-2.21a1.468,1.468,0,0,1-.312.988,3.242,3.242,0,0,1-.78.65A6.319,6.319,0,0,1,100,.13a11.3,11.3,0,0,1-2.548.26,7.283,7.283,0,0,1-4.1-1,3.373,3.373,0,0,1-1.495-3,3.276,3.276,0,0,1,1.1-2.665A5.821,5.821,0,0,1,96.174-7.41l3.562-.364v-.468A1.616,1.616,0,0,0,99.021-9.7a3.667,3.667,0,0,0-2.015-.468,7.914,7.914,0,0,0-1.976.247,9.223,9.223,0,0,0-1.716.611,1.694,1.694,0,0,1-.481-.559,1.553,1.553,0,0,1-.195-.767,1.359,1.359,0,0,1,.247-.845,2.12,2.12,0,0,1,.793-.585,7.718,7.718,0,0,1,1.716-.468A12.163,12.163,0,0,1,97.344-12.688ZM109.512-.026q-.234.052-.624.13A4.532,4.532,0,0,1,108,.182a2.218,2.218,0,0,1-1.352-.338,1.42,1.42,0,0,1-.442-1.2V-16.9a3.379,3.379,0,0,1,.611-.143,5.66,5.66,0,0,1,.9-.065,2.218,2.218,0,0,1,1.352.338,1.42,1.42,0,0,1,.442,1.2v3.588a7.427,7.427,0,0,1,1.313-.494,6.1,6.1,0,0,1,1.651-.208,5.541,5.541,0,0,1,3.77,1.222,4.634,4.634,0,0,1,1.4,3.692V-.026q-.208.052-.611.13a4.585,4.585,0,0,1-.871.078,2.27,2.27,0,0,1-1.378-.338,1.42,1.42,0,0,1-.442-1.2V-7.618a2.369,2.369,0,0,0-.676-1.885,2.606,2.606,0,0,0-1.768-.585,3.722,3.722,0,0,0-1.3.221,5.808,5.808,0,0,0-1.092.533Z" transform="translate(8371 7985)" fill="url(#linear-gradient)"/>
  </g>
</svg>
